<svg width="273" height="131" viewBox="0 0 273 131" fill="none" xmlns="http://www.w3.org/2000/svg">
<path d="M270.576 81.2032C269.976 80.9032 269.376 80.6032 268.676 80.5032C264.476 79.6032 260.476 80.2032 256.376 80.6032C253.476 80.9032 248.376 81.0032 248.676 76.9032C249.376 68.4032 260.376 68.3032 265.876 64.7032C266.576 64.3032 267.076 63.5032 267.176 62.7032C267.176 62.2032 267.076 61.7032 266.876 61.2032C261.476 47.2032 247.976 38.2032 234.476 33.1032C224.176 29.2032 214.876 27.7032 203.976 30.1032C201.476 30.7032 198.976 31.4032 196.476 32.3032C194.476 33.0032 192.276 33.9032 190.076 34.8032C186.276 36.7032 179.376 39.9032 177.176 34.5032C173.176 24.6032 167.376 14.2032 159.876 6.30323C155.176 1.40323 148.276 -0.896771 141.676 0.403229C134.076 2.00323 130.176 8.00323 125.476 13.6032C123.076 16.4032 115.176 25.0032 112.076 18.1032C110.876 15.5032 111.676 12.6032 111.076 9.90323C109.376 2.10323 101.676 -0.0967723 94.6756 0.00322774C88.4756 0.103228 82.2756 1.20323 76.3756 3.30323C70.4756 5.40323 65.0756 8.80323 58.8756 10.3032C50.2756 12.4032 41.6756 3.90323 32.3756 7.50323C30.2756 8.20323 28.3756 9.20323 26.5756 10.6032C23.1756 13.1032 20.7756 16.8032 19.8756 21.0032C19.7756 21.3032 19.7756 21.5032 19.6756 21.8032C17.7756 34.6032 13.8756 46.3032 10.1756 57.7032C5.8756 70.6032 1.4756 84.0032 0.1756 98.6032C0.0755998 99.9032 -0.0243986 101.203 0.0756014 102.503C0.0756014 102.503 0.0756014 102.603 0.0756014 102.703C0.575601 113.503 7.9756 122.603 18.4756 125.203C21.3756 128.003 25.5756 130.903 31.2756 130.903C31.4756 130.903 31.7756 130.903 31.9756 130.903C36.0756 130.603 39.9756 128.903 42.9756 126.003C46.2756 122.203 49.4756 118.303 52.5756 114.403C58.4756 121.703 68.9756 125.503 77.8756 124.203C78.4756 124.203 79.0756 124.203 79.6756 124.203C88.9756 125.003 97.4756 119.703 106.076 119.703C114.876 120.503 123.776 120.703 132.176 119.403C134.976 119.003 137.676 118.403 140.376 117.603C141.476 120.003 143.576 121.803 146.076 122.603C148.776 123.303 151.576 123.503 154.376 123.103C160.676 121.903 168.176 118.703 172.476 120.803C178.776 123.903 185.876 124.403 193.276 123.803C195.676 123.603 198.176 123.203 200.676 122.803C218.676 119.803 237.976 116.603 251.876 103.703C251.876 111.003 235.176 113.703 240.176 121.903C240.676 122.803 255.576 116.303 257.076 115.603C261.676 113.603 267.976 111.403 270.576 106.803C270.876 106.303 271.076 105.703 271.176 105.003C271.376 102.303 267.776 100.703 266.576 98.5032C265.076 96.0032 265.276 92.8032 267.176 90.6032C268.376 89.2032 269.676 88.0032 271.176 87.0032C273.176 85.6032 273.376 82.9032 270.576 81.2032Z" fill="#E22741"/>
</svg>
